<?xml version="1.0" encoding="utf-8"?>
<!-- Generator: Adobe Illustrator 22.1.0, SVG Export Plug-In . SVG Version: 6.00 Build 0)  -->
<svg version="1.1" id="Capa_1" xmlns="http://www.w3.org/2000/svg" xmlns:xlink="http://www.w3.org/1999/xlink" x="0px" y="0px"
	 viewBox="0 0 274 464" style="enable-background:new 0 0 274 464;" xml:space="preserve">
<style type="text/css">
	.st0{fill:url(#SVGID_1_);}
	.st1{fill:url(#SVGID_4_);}
	.st2{fill:#FBE503;}
	.st3{fill:none;}
	.st4{fill:#B40803;}
	.st5{fill:#FFFFFF;}
	.st6{fill-rule:evenodd;clip-rule:evenodd;}
	.st7{fill:#BCBAB7;}
	.st8{fill:#FF7F00;}
	.st9{fill:#9EE4E8;}
	.st10{clip-path:url(#SVGID_6_);}
	.st11{clip-path:url(#SVGID_8_);}
	.st12{clip-path:url(#SVGID_10_);}
	.st13{fill-rule:evenodd;clip-rule:evenodd;fill:#FFFFFF;}
	.st14{fill-rule:evenodd;clip-rule:evenodd;fill:url(#SVGID_11_);}
	.st15{fill-rule:evenodd;clip-rule:evenodd;fill:url(#SVGID_12_);}
	.st16{clip-path:url(#SVGID_14_);}
	.st17{fill-rule:evenodd;clip-rule:evenodd;fill:#CB2026;}
	.st18{fill:url(#SVGID_15_);}
	.st19{clip-path:url(#SVGID_17_);}
	.st20{fill:#007358;stroke:#007358;stroke-miterlimit:10;}
	.st21{fill:#400045;}
	.st22{fill:#FF5D00;}
	.st23{fill:#2A5A9A;}
	.st24{opacity:0.7;}
	.st25{fill:none;stroke:#FFFFFF;stroke-width:0.5;stroke-linecap:round;stroke-linejoin:round;stroke-miterlimit:10;}
	.st26{fill:url(#SVGID_18_);}
	.st27{fill:url(#SVGID_19_);}
	.st28{fill:url(#SVGID_20_);}
	.st29{fill:url(#SVGID_21_);}
	.st30{fill:url(#SVGID_22_);}
	.st31{fill:url(#SVGID_23_);}
	.st32{fill:url(#SVGID_24_);}
	.st33{fill:url(#SVGID_25_);}
	.st34{fill:url(#SVGID_26_);}
	.st35{opacity:0.89;fill:url(#SVGID_27_);}
	.st36{opacity:0.89;fill:url(#SVGID_28_);}
	.st37{fill:url(#SVGID_29_);}
	.st38{fill:url(#SVGID_30_);}
	.st39{fill:url(#SVGID_31_);}
	.st40{fill:url(#SVGID_32_);}
	.st41{fill:url(#SVGID_33_);}
	.st42{fill:url(#SVGID_34_);}
	.st43{fill:url(#SVGID_35_);}
	.st44{fill:url(#SVGID_36_);}
	.st45{fill:url(#SVGID_37_);}
	.st46{fill:url(#SVGID_38_);}
	.st47{opacity:0.89;fill:url(#SVGID_39_);}
	.st48{fill:url(#SVGID_40_);}
	.st49{fill:url(#SVGID_41_);}
	.st50{fill:url(#SVGID_42_);}
	.st51{clip-path:url(#SVGID_44_);}
	.st52{fill:url(#SVGID_45_);}
	.st53{fill:url(#SVGID_46_);}
	.st54{fill:url(#SVGID_47_);}
	.st55{fill:url(#SVGID_48_);}
	.st56{fill:url(#SVGID_49_);}
	.st57{fill:url(#SVGID_50_);}
	.st58{fill:url(#SVGID_51_);}
	.st59{fill:url(#SVGID_52_);}
	.st60{fill:url(#SVGID_53_);}
	.st61{opacity:0.89;fill:url(#SVGID_54_);}
	.st62{opacity:0.89;fill:url(#SVGID_55_);}
	.st63{fill:url(#SVGID_56_);}
	.st64{fill:url(#SVGID_57_);}
	.st65{fill:url(#SVGID_58_);}
	.st66{fill:url(#SVGID_59_);}
	.st67{fill:url(#SVGID_60_);}
	.st68{fill:url(#SVGID_61_);}
	.st69{fill:url(#SVGID_62_);}
	.st70{fill:url(#SVGID_63_);}
	.st71{opacity:0.89;fill:url(#SVGID_64_);}
	.st72{fill:url(#SVGID_65_);}
	.st73{clip-path:url(#SVGID_67_);}
	.st74{fill-rule:evenodd;clip-rule:evenodd;fill:url(#SVGID_68_);}
	.st75{fill-rule:evenodd;clip-rule:evenodd;fill:url(#SVGID_69_);}
	.st76{fill-rule:evenodd;clip-rule:evenodd;fill:url(#SVGID_70_);}
	.st77{fill-rule:evenodd;clip-rule:evenodd;fill:url(#SVGID_71_);}
	.st78{fill-rule:evenodd;clip-rule:evenodd;fill:url(#SVGID_72_);}
	.st79{fill:url(#SVGID_73_);}
	.st80{fill:url(#SVGID_74_);}
	.st81{fill-rule:evenodd;clip-rule:evenodd;fill:url(#SVGID_75_);}
	.st82{fill-rule:evenodd;clip-rule:evenodd;fill:url(#SVGID_76_);}
	.st83{fill-rule:evenodd;clip-rule:evenodd;fill:url(#SVGID_77_);}
	.st84{fill-rule:evenodd;clip-rule:evenodd;fill:url(#SVGID_78_);}
	.st85{fill-rule:evenodd;clip-rule:evenodd;fill:url(#SVGID_79_);}
	.st86{fill:url(#SVGID_80_);}
	.st87{fill:url(#SVGID_81_);}
	.st88{clip-path:url(#SVGID_83_);}
	.st89{clip-path:url(#SVGID_85_);}
	.st90{clip-path:url(#SVGID_87_);}
	.st91{clip-path:url(#SVGID_89_);}
	.st92{fill:url(#SVGID_90_);}
	.st93{clip-path:url(#SVGID_92_);}
	.st94{clip-path:url(#SVGID_96_);}
	.st95{clip-path:url(#SVGID_98_);}
	.st96{clip-path:url(#SVGID_100_);}
	.st97{clip-path:url(#SVGID_102_);}
	.st98{fill-rule:evenodd;clip-rule:evenodd;fill:url(#SVGID_103_);}
	.st99{fill-rule:evenodd;clip-rule:evenodd;fill:url(#SVGID_104_);}
</style>
<g>
	<defs>
		<rect id="SVGID_99_" width="274" height="464"/>
	</defs>
	<clipPath id="SVGID_1_">
		<use xlink:href="#SVGID_99_"  style="overflow:visible;"/>
	</clipPath>
	<g style="clip-path:url(#SVGID_1_);">
		<defs>
			
				<rect id="SVGID_101_" x="-65.4" y="20.1" transform="matrix(0.9351 -0.3544 0.3544 0.9351 -72.3591 66.4537)" width="421.3" height="421.3"/>
		</defs>
		<clipPath id="SVGID_3_">
			<use xlink:href="#SVGID_101_"  style="overflow:visible;"/>
		</clipPath>
		<g style="clip-path:url(#SVGID_3_);">
			<g>
				<g>
					<path d="M108.3,427.3c3.6,8.2,3.9,16.9,0.8,26c-3.4,10.3-9.6,18-18.6,23.1c-9,5.1-18.2,6.1-27.7,2.9
						c-8.7-2.9-14.9-8.5-18.7-16.8c-3.8-8.3-3.7-17.7,0.2-28.3c3.6-9.4,10.1-16.3,19.5-20.8c9.4-4.5,18.3-5.4,26.6-2.6
						C98.7,413.5,104.7,419,108.3,427.3z M310.7,108.5c12.2,23.2,14.1,47.5,5.6,72.7c-2.1,6.3-3.8,10.8-5.2,13.4
						c-9.4,20.2-24.4,35.9-45.1,47.2c-20.7,11.3-47.2,22.3-79.3,33.1c-22.3,7.5-38.7,13.7-49.1,18.8c-10.5,5.1-17,11.3-19.5,18.8
						c-1.7,5.1-1.3,10.1,1.3,14.9c2.6,4.8,7.8,8.5,15.7,11.2c8.3,2.8,16.5,4,24.5,3.6l-1,22.7c-14.2,3.1-31.2,1.4-51-5.2
						c-9.9-3.3-18.8-10-26.8-20.2c-8-10.2-9.7-21.7-4.9-34.6c4.2-10,11.8-18,22.6-24.1c10.8-6,26.9-13.4,48.3-22.1
						c29-10.5,52.5-21.5,70.4-33.1c17.9-11.6,31.7-28.3,41.2-50.1c1.2-2.2,2.6-5.9,4.4-11.1c6.9-20.5,6.9-38.8,0.2-54.7
						c-6.8-15.9-22-27.8-45.7-35.8c-11.1-3.7-22.2-5.1-33.5-4.3c-11.3,0.8-21.3,3.4-30,7.8c-8.7,4.3-14.9,9.4-18.6,15.2
						c4.3,6.7,4.7,15.4,1.1,26.1c-2.5,7.5-7.1,13-13.8,16.5c-6.7,3.5-13.9,3.9-21.8,1.2c-7.9-2.7-13.6-7.5-17.2-14.7
						c-3.5-7.1-3.9-15-0.9-23.7c4.1-12.2,13.7-23.3,28.9-33.2c15.2-9.9,33.6-16.1,55.4-18.7c21.7-2.6,44.5,0.1,68.2,8
						C273.2,67.2,298.5,85.3,310.7,108.5z"/>
				</g>
			</g>
		</g>
	</g>
</g>
</svg>
