<?xml version="1.0" encoding="utf-8"?>
<!-- Generator: Adobe Illustrator 22.1.0, SVG Export Plug-In . SVG Version: 6.00 Build 0)  -->
<svg version="1.1" id="Capa_1" xmlns="http://www.w3.org/2000/svg" xmlns:xlink="http://www.w3.org/1999/xlink" x="0px" y="0px"
	 viewBox="0 0 360 697" style="enable-background:new 0 0 360 697;" xml:space="preserve">
<style type="text/css">
	.st0{fill:url(#SVGID_1_);}
	.st1{fill:url(#SVGID_4_);}
	.st2{fill:#FBE503;}
	.st3{fill:none;}
	.st4{fill:#B40803;}
	.st5{fill:#FFFFFF;}
	.st6{fill-rule:evenodd;clip-rule:evenodd;}
	.st7{fill:#BCBAB7;}
	.st8{fill:#FF7F00;}
	.st9{fill:#9EE4E8;}
	.st10{clip-path:url(#SVGID_6_);}
	.st11{clip-path:url(#SVGID_8_);}
	.st12{fill-rule:evenodd;clip-rule:evenodd;fill:#FFFFFF;}
	.st13{fill-rule:evenodd;clip-rule:evenodd;fill:url(#SVGID_9_);}
	.st14{fill-rule:evenodd;clip-rule:evenodd;fill:url(#SVGID_10_);}
	.st15{clip-path:url(#SVGID_12_);}
	.st16{fill-rule:evenodd;clip-rule:evenodd;fill:#CB2026;}
	.st17{fill:url(#SVGID_13_);}
	.st18{clip-path:url(#SVGID_15_);}
	.st19{fill:#007358;stroke:#007358;stroke-miterlimit:10;}
	.st20{fill:#400045;}
	.st21{fill:#FF5D00;}
	.st22{fill:#2A5A9A;}
	.st23{opacity:0.7;}
	.st24{fill:none;stroke:#FFFFFF;stroke-width:0.5;stroke-linecap:round;stroke-linejoin:round;stroke-miterlimit:10;}
	.st25{fill:url(#SVGID_16_);}
	.st26{fill:url(#SVGID_17_);}
	.st27{fill:url(#SVGID_18_);}
	.st28{fill:url(#SVGID_19_);}
	.st29{fill:url(#SVGID_20_);}
	.st30{fill:url(#SVGID_21_);}
	.st31{fill:url(#SVGID_22_);}
	.st32{fill:url(#SVGID_23_);}
	.st33{fill:url(#SVGID_24_);}
	.st34{opacity:0.89;fill:url(#SVGID_25_);}
	.st35{opacity:0.89;fill:url(#SVGID_26_);}
	.st36{fill:url(#SVGID_27_);}
	.st37{fill:url(#SVGID_28_);}
	.st38{fill:url(#SVGID_29_);}
	.st39{fill:url(#SVGID_30_);}
	.st40{fill:url(#SVGID_31_);}
	.st41{fill:url(#SVGID_32_);}
	.st42{fill:url(#SVGID_33_);}
	.st43{fill:url(#SVGID_34_);}
	.st44{fill:url(#SVGID_35_);}
	.st45{fill:url(#SVGID_36_);}
	.st46{opacity:0.89;fill:url(#SVGID_37_);}
	.st47{fill:url(#SVGID_38_);}
	.st48{fill:url(#SVGID_39_);}
	.st49{fill:url(#SVGID_40_);}
	.st50{clip-path:url(#SVGID_42_);}
	.st51{fill:url(#SVGID_43_);}
	.st52{fill:url(#SVGID_44_);}
	.st53{fill:url(#SVGID_45_);}
	.st54{fill:url(#SVGID_46_);}
	.st55{fill:url(#SVGID_47_);}
	.st56{fill:url(#SVGID_48_);}
	.st57{fill:url(#SVGID_49_);}
	.st58{fill:url(#SVGID_50_);}
	.st59{fill:url(#SVGID_51_);}
	.st60{opacity:0.89;fill:url(#SVGID_52_);}
	.st61{opacity:0.89;fill:url(#SVGID_53_);}
	.st62{fill:url(#SVGID_54_);}
	.st63{fill:url(#SVGID_55_);}
	.st64{fill:url(#SVGID_56_);}
	.st65{fill:url(#SVGID_57_);}
	.st66{fill:url(#SVGID_58_);}
	.st67{fill:url(#SVGID_59_);}
	.st68{fill:url(#SVGID_60_);}
	.st69{fill:url(#SVGID_61_);}
	.st70{opacity:0.89;fill:url(#SVGID_62_);}
	.st71{fill:url(#SVGID_63_);}
	.st72{clip-path:url(#SVGID_65_);}
	.st73{fill-rule:evenodd;clip-rule:evenodd;fill:url(#SVGID_66_);}
	.st74{fill-rule:evenodd;clip-rule:evenodd;fill:url(#SVGID_67_);}
	.st75{fill-rule:evenodd;clip-rule:evenodd;fill:url(#SVGID_68_);}
	.st76{fill-rule:evenodd;clip-rule:evenodd;fill:url(#SVGID_69_);}
	.st77{fill-rule:evenodd;clip-rule:evenodd;fill:url(#SVGID_70_);}
	.st78{fill:url(#SVGID_71_);}
	.st79{fill:url(#SVGID_72_);}
	.st80{clip-path:url(#SVGID_74_);}
	.st81{clip-path:url(#SVGID_76_);}
	.st82{clip-path:url(#SVGID_78_);}
	.st83{clip-path:url(#SVGID_80_);}
	.st84{fill:url(#SVGID_81_);}
	.st85{clip-path:url(#SVGID_83_);}
	.st86{clip-path:url(#SVGID_87_);}
	.st87{clip-path:url(#SVGID_89_);}
	.st88{fill-rule:evenodd;clip-rule:evenodd;fill:url(#SVGID_90_);}
	.st89{fill-rule:evenodd;clip-rule:evenodd;fill:url(#SVGID_91_);}
</style>
<g>
	<path d="M342.8,550.7c-12.7,4.5-22.6,14-29.7,28.4c-7.1,14.4-8.4,29-3.8,43.7c5.2,16.5,14.1,28,26.6,34.4c8.2,4.2,16.6,6,25.1,5.4
		V548.1C355,547.7,348.9,548.5,342.8,550.7z"/>
	<path d="M330.2,295c11.4-17.3,21.7-33.8,30.8-49.5V1.3c-0.5-0.4-1-0.9-1.5-1.3H139.7c-19.3,10.5-36.2,23-50.8,37.6
		c-23.8,23.8-40.2,48.9-49.2,75.2c-9,26.3-10.1,48.9-3.5,67.6c4.7,13.3,12.6,22.5,23.7,27.8c11.1,5.2,22.6,5.7,34.7,1.4
		c12.1-4.3,20.5-11.7,25.2-22.3c4.7-10.5,5.1-21.5,1-33c-5.8-16.3-14.5-26.5-26.2-30.5c-1-10.5,1.7-22.5,8.1-36
		c6.4-13.5,16-26.1,28.9-37.8c12.8-11.7,27.7-20.6,44.6-26.6c36.2-12.9,66-13,89.2-0.2c23.3,12.8,40.5,34.9,51.7,66.3
		c2.8,7.9,4.5,13.7,5.2,17.5c9.2,35.5,8.5,68.7-2.2,99.8c-10.7,31-28.6,66.7-53.7,106.9c-17.6,30.8-30.1,55-37.4,72.5
		c-7.3,17.6-8.8,34.4-4.4,50.6c6.5,20.1,19.4,32.5,38.8,37.2c19.3,4.7,36.6,4.3,51.7-1.1c18.2-6.5,33.5-14.2,46-23.1v-47.2
		c-9.3,8-20.2,14.2-32.7,18.7c-12.1,4.3-21.9,4.8-29.6,1.4c-7.7-3.4-12.9-9-15.7-16.9c-4.1-11.5-2.2-25.2,5.7-41.3
		C296.5,348.3,310.4,325.2,330.2,295z"/>
</g>
</svg>
